<svg xmlns="http://www.w3.org/2000/svg" width="112" height="112" viewBox="0 0 112 112">
  <g id="Group_1" data-name="Group 1" transform="translate(-165 -18)">
    <rect id="Rectangle_2" data-name="Rectangle 2" width="112" height="112" transform="translate(165 18)" fill="red"/>
    <g id="Group_1-2" data-name="Group 1" transform="translate(-410.791 -912)">
      <path id="Path_1" data-name="Path 1" d="M122.435,43.405a5.84,5.84,0,1,0-7.921-2.34,5.84,5.84,0,0,0,7.921,2.34Z" transform="translate(537.738 917.566)" fill="#fff"/>
      <path id="Path_2" data-name="Path 2" d="M133.014,51.982c-.173-.958-1.131-1.62-3.334-1.347-13.84,1.728-21.653,2.974-49.816,6.049-2.3.252-4.234.576-4.45,2.16-.353,2.535,6.222,2.7,10.8,3.78a29.4,29.4,0,0,1,6.769,2.239,1.527,1.527,0,0,1,.655,2.455c-5.35,7.755-12.558,18.765-14.589,22.733S80.434,95.965,83.775,93c7.921-7.042,10.369-10.211,17.462-15.763.972-.763,1.743-.6,2,.562.137.641.288,1.44.425,2.456a20.769,20.769,0,0,1,0,4.321v.144c0,.338-.065.77-.122,1.3-.886,8.022-5.84,16.4-11.183,21.387a33.844,33.844,0,0,0,13.53-8.771h.058a27.225,27.225,0,0,0,2.283-2.78,34.175,34.175,0,0,0,6.178-14.733,37.176,37.176,0,0,0,.547-3.759c1.08-11.449,5.862-15.568,15.712-21.675C132.179,54.776,133.274,53.394,133.014,51.982Z" transform="translate(548.487 912.489)" fill="#fff"/>
      <path id="Path_3" data-name="Path 3" d="M87.689,89.606a22.733,22.733,0,0,1-9.973,7.633,27.63,27.63,0,0,1-14.8,1.246c-.972-.173-1.915-.4-2.844-.655A30.287,30.287,0,0,1,73.633,38.854h0a2.767,2.767,0,0,0,.994-5.444A35.81,35.81,0,0,0,59.613,103.4c.77.194,1.548.374,2.347.518a36.264,36.264,0,0,0,18.384-1.44c5.343-4.99,10.3-13.365,11.183-21.387.058-.533.1-.965.122-1.3a20.162,20.162,0,0,1-3.96,9.822Z" transform="translate(560.494 917.451)" fill="#fff"/>
    </g>
  </g>
</svg>
