<svg xmlns="http://www.w3.org/2000/svg" width="112" height="112" viewBox="0 0 112 112">
  <g id="Group_9" data-name="Group 9" transform="translate(-165 -147)">
    <g id="Group_8" data-name="Group 8" transform="translate(0 129)">
      <rect id="Rectangle_2" data-name="Rectangle 2" width="112" height="112" transform="translate(165 18)" fill="red"/>
    </g>
    <path id="logo_mtrx" d="M775.814,94.047V83.9c-16.144,0-27.441,9.155-33.146,15.175C736.986,93.055,725.69,83.9,709.523,83.9V94.047c13.258,0,22.593,8.456,26.652,12.988-4.059,4.555-13.394,12.988-26.652,12.988l-.023,10.124c16.144,0,27.441-9.155,33.146-15.175,5.682,6.02,16.979,15.175,33.146,15.175V120c-13.258,0-22.593-8.456-26.652-12.988C753.221,102.48,762.556,94.047,775.814,94.047Z" transform="translate(-521.5 96.1)" fill="#fff"/>
  </g>
</svg>
