<svg xmlns="http://www.w3.org/2000/svg" width="112" height="112" viewBox="0 0 112 112">
  <g id="Group_18" data-name="Group 18" transform="translate(-14 -276)">
    <g id="Group_17" data-name="Group 17" transform="translate(-151)">
      <g id="Group_14" data-name="Group 14" transform="translate(0 129)">
        <g id="Group_8" data-name="Group 8" transform="translate(0 129)">
          <rect id="Rectangle_2" data-name="Rectangle 2" width="112" height="112" transform="translate(165 18)" fill="#c2112b"/>
        </g>
      </g>
    </g>
    <g id="DSB_company_logo" transform="translate(-57.245 0.381)">
      <path id="Path_9" data-name="Path 9" d="M154.63,340.322h-4.472v-7.34h3.115c4.313,0,6.07,1.071,6.07,3.955,0,2.476-1.677,3.385-4.713,3.385m-4.472-18.488h3.075c2.595,0,5.19.208,5.19,2.979,0,3.069-2.155,3.658-5.51,3.658h-2.756Zm9.584,8.967v-1.035c3.754-.481,5.271-2.735,5.271-5.766,0-5.766-5.431-6.876-10.422-6.876H143.569v28.055h10.7c5.63,0,11.9-.814,11.9-8.057,0-4.213-3.275-5.914-6.43-6.32m-31.763,14.822a40.991,40.991,0,0,1-9.943-1.114v-5.079a37.164,37.164,0,0,0,8.307.966c3.075,0,6.03-.449,6.03-3.554,0-6.284-14.058-.793-14.058-12.178,0-6.1,5.511-7.984,11.222-7.984a67.008,67.008,0,0,1,8.027.545v4.932a44,44,0,0,0-6.508-.472c-2.518,0-5.712-.088-5.712,2.794,0,5.249,14.335,1.073,14.335,12.05,0,6.986-6.069,9.093-11.7,9.093m-28.727-5.411H95.937V322.13H99.61c3.435,0,8.9,1.168,8.9,8.745,0,6.69-3.594,9.336-9.264,9.336m1-23.088H89.068v28.055h12.021c3.114,0,14.416-2,14.416-14.083,0-11.569-7.707-13.972-15.254-13.972" fill="#fff"/>
    </g>
  </g>
</svg>
