<svg xmlns="http://www.w3.org/2000/svg" width="112" height="112" viewBox="0 0 112 112">
  <g id="Group_17" data-name="Group 17" transform="translate(-165 -276)">
    <g id="Group_16" data-name="Group 16">
      <g id="Group_14" data-name="Group 14" transform="translate(0 129)">
        <g id="Group_8" data-name="Group 8" transform="translate(0 129)">
          <rect id="Rectangle_2" data-name="Rectangle 2" width="112" height="112" transform="translate(165 18)" fill="#c0311a"/>
        </g>
      </g>
    </g>
    <g id="logo_tib" transform="translate(181.916 311.15)">
      <path id="Path_7" data-name="Path 7" d="M78.168,0H48.1l6.4,6.409h8.21l-5.841,5.858a16.026,16.026,0,0,0-24.56,10.183H0l6.4,6.409H48.055a3.122,3.122,0,0,0,1.963-.683l6.7-6.7a9.581,9.581,0,0,1-8.665,13.8H19.222l6.4,6.421H48.055A16.077,16.077,0,0,0,61.4,16.771ZM46.678,22.449H38.994a9.576,9.576,0,0,1,9.06-6.421,9.483,9.483,0,0,1,4.117.934Z" fill="#fff" fill-rule="evenodd"/>
    </g>
  </g>
</svg>
