<svg xmlns="http://www.w3.org/2000/svg" width="112" height="112" viewBox="0 0 112 112">
  <g id="Group_2" data-name="Group 2" transform="translate(-14 -18)">
    <rect id="Rectangle_1" data-name="Rectangle 1" width="112" height="112" transform="translate(14 18)" fill="#00a149"/>
    <g id="layer1" transform="translate(-528.152 -499.556)">
      <path id="path2396" d="M552.152,554.556h10.633c3.933,0,5.219,1.84,6.468,3.734l12.508,18.973c.145.237.341.142.46,0L593.574,559.5c1.858-2.907,3.976-4.892,8.859-4.892h28.653c4.01,0,12.074,4.247,12.074,13.826,0,7.223-5.463,13.232-10.633,13.232-.2-.036-.26.206.1.744l6.645,9.839H628.824c-3.922,0-6.108-2.208-7.545-4.416l-1.366-2.1a8.144,8.144,0,0,0-6.156-3.554H601.684l4.505-6.718c2.046-3.051,4.4-3.811,9.218-3.811h11.552c5.142,0,4.682-6.51.1-6.51H609.5c-2.248,0-5.63,1.234-8.325,5.456l-10.813,16.94c-3.728,5.944-12.4,6.927-16.787,0Z" fill="#fff" stroke="#000" stroke-width="0" fill-rule="evenodd"/>
    </g>
  </g>
</svg>
