<svg xmlns="http://www.w3.org/2000/svg" width="112" height="112" viewBox="0 0 112 112">
  <g id="Group_13" data-name="Group 13" transform="translate(-316 -147)">
    <g id="Group_12" data-name="Group 12" transform="translate(151)">
      <g id="Group_8" data-name="Group 8" transform="translate(0 129)">
        <rect id="Rectangle_2" data-name="Rectangle 2" width="112" height="112" transform="translate(165 18)" fill="#d6001c"/>
      </g>
    </g>
    <g id="Layer_2" transform="translate(335.268 182)">
      <path id="Path_6" data-name="Path 6" d="M11.7,42.069c7.329,0,13.516-4.473,13.516-11.9,0-7.043-6-9.613-10.47-11.517-2.57-1.047-5.425-2.189-5.425-5.14,0-2.855,2.951-4.188,5.235-4.188a8.59,8.59,0,0,1,6.472,2.665l3.522-4.378c-2.189-2.379-5.9-3.807-10.375-3.807C7.99,3.807,1.613,6.948,1.613,14.087c0,6.663,4.949,8.661,9.328,10.47,2.951,1.237,6.472,2.475,6.472,6.282,0,3.236-3.141,5.33-5.9,5.33-4.188,0-6.567-1.808-7.8-3.617L-.1,37.786a16.768,16.768,0,0,0,11.8,4.283ZM71.57,0c-3.331,0-5.806,2.094-5.806,5.14s2.475,4.949,5.806,4.949S77.376,8,77.376,4.949C77.281,1.9,74.9,0,71.57,0Zm0,7.519a2.489,2.489,0,1,1,2.76-2.475,2.482,2.482,0,0,1-2.76,2.475ZM45.491,26.555l10.279-13.23h-7.8L37.686,26.936,47.775,41.594h8.566ZM37.686,4H30.643V41.5h7.043ZM81.564,20.368c0-5.806-5.14-7.614-11.231-7.614-7.043,0-10.66,3.617-10.66,3.617l2.76,4.188a11.411,11.411,0,0,1,7.138-2.76c2.189,0,4.949.761,4.949,3.617V23.6l-6.377.952c-4.949.761-9.8,3.236-9.8,9.328,0,5.33,3.617,8.185,7.71,8.185a11.3,11.3,0,0,0,8.376-3.617l.381,3.141h6.758ZM69.286,36.644c-2.475,0-4.093-1.047-4.093-3.617,0-4.093,3.617-4.854,9.328-5.235V31.98C74.521,34.741,72.427,36.644,69.286,36.644Z" transform="translate(0)" fill="#fff"/>
    </g>
  </g>
</svg>
