<svg xmlns="http://www.w3.org/2000/svg" width="112" height="112" viewBox="0 0 112 112">
  <g id="Group_11" data-name="Group 11" transform="translate(-14 -147)">
    <g id="Group_10" data-name="Group 10" transform="translate(0 129)">
      <rect id="Rectangle_1" data-name="Rectangle 1" width="112" height="112" transform="translate(14 18)" fill="#00ab3b"/>
    </g>
    <path id="path2187" d="M86.88,456.809a25.431,25.431,0,0,1-9.677-2.56,22.444,22.444,0,0,1-9.955-9.763c-1.6-2.877-2.093-3.473-3.3-3.957-.422-.169-.556-.176-3.832-.221-3.7-.051-3.713-.052-4.683-.545-1.781-.906-3.736-3.062-5.452-6.013-.483-.831-.583-1.187-.356-1.274s11.872-.051,13.027.034a14.42,14.42,0,0,1,7.858,2.508c1.575,1.163,2.626,2.562,4.239,5.645a11.8,11.8,0,0,0,3.1,4.147,18.353,18.353,0,0,0,8.525,3.823A20.128,20.128,0,0,0,91.6,448.6a17.3,17.3,0,0,0,9.18-4.593,13.653,13.653,0,0,0,2.486-3.731,15.073,15.073,0,0,1,3.41-4.767c2.116-1.8,4.729-2.721,8.494-3,1.619-.119,12.936-.108,13.057.013.162.163.105.349-.347,1.133-1.74,3.016-3.775,5.253-5.591,6.147-.951.468-1.3.506-4.6.508-3.1,0-3.465.033-4.175.365-.9.422-1.538,1.237-2.95,3.773a22.747,22.747,0,0,1-4.264,5.739,19.652,19.652,0,0,1-3.283,2.664,24.646,24.646,0,0,1-10.63,3.817C91.493,456.78,87.678,456.878,86.88,456.809ZM79.22,440a4.975,4.975,0,0,1-1.678-2.6c-1.5-4.226-5.771-7.54-11.073-8.594-1.9-.377-1.852-.376-11-.425l-8.663-.047-.468-.176a10.139,10.139,0,0,1-3.728-2.971c-1.075-1.316-2.485-3.656-2.375-3.943.048-.124.925-.131,13.964-.109,13.792.024,13.922.025,14.928.191,5.333.878,9.088,3.33,11,7.186a12.9,12.9,0,0,1,1.266,6.185c.066,2.948-.123,4.334-.681,5.009A1.183,1.183,0,0,1,79.22,440Zm18.313.047c-.855-.38-1.131-1.518-1.13-4.651a19.079,19.079,0,0,1,.28-4.019,11.839,11.839,0,0,1,3.7-6.42,15.993,15.993,0,0,1,8.308-3.631c1.012-.166,1.126-.168,14.922-.191,13.187-.023,13.9-.017,13.955.113a6.252,6.252,0,0,1-1.153,2.239c-1.618,2.476-3.17,3.949-4.891,4.643l-.507.2-8.663.047c-9.295.051-9.164.045-11.238.471a21.761,21.761,0,0,0-3.8,1.261,13.326,13.326,0,0,0-7.006,7.2,8.173,8.173,0,0,1-1.15,2.225A1.4,1.4,0,0,1,97.533,440.045Z" transform="translate(-19.227 -236.122)" fill="#fff"/>
  </g>
</svg>
