<svg xmlns="http://www.w3.org/2000/svg" width="112" height="112" viewBox="0 0 112 112">
  <g id="Group_15" data-name="Group 15" transform="translate(-165 -276)">
    <g id="Group_14" data-name="Group 14" transform="translate(0 129)">
      <g id="Group_8" data-name="Group 8" transform="translate(0 129)">
        <rect id="Rectangle_2" data-name="Rectangle 2" width="112" height="112" transform="translate(165 18)" fill="#f20000"/>
      </g>
    </g>
    <path id="path3742" d="M221.173,302.283c-.309-9.283-4.184-18.466-13.572-18.466V280.14a13.989,13.989,0,0,1,10.512,4.289,1.7,1.7,0,0,0,1.428.612c1.224,0,1.632-1.125,1.632-2.447v-2.039h3.263v21.735h-3.263ZM193.01,341.156s-.3-.612-1.428-.612a2.182,2.182,0,0,0-2.145,2.447v2.039h-3.263V322.177h3.263c0,9.7,4.388,19.591,14.183,19.591v3.671a14.266,14.266,0,0,1-10.611-4.283m14.078,4.289v-3.671c6.019-.2,8.059-4.487,8.059-8.98,0-8.263-8.671-11.427-13.874-14.9-8.164-5.3-15.2-9.69-15.2-21.939,0-7.447,5.717-15.815,18.262-15.815v3.677c-4.487.2-7.348,3.263-7.348,6.94,0,8.059,7.552,11.223,12.756,14.486,8.059,5,16.124,9.079,16.124,21.426,0,9.184-6.631,18.775-18.775,18.775" transform="translate(15.033 19.207)" fill="#fff"/>
  </g>
</svg>
